# xmcd
#
# Track frame offsets: 
#        150
#        12807
#        24629
#        37805
#        52585
#        65294
#        76994
#        90812
#        101246
#        114684
#        126755
#        138752
#        151534
#        165334
#        175538
#        186737
#        197606
#        207860
#
# Disc length: 2921 seconds
#
# Revision: 3
# Processed by: cddbd v1.5.2PL0 Copyright (c) Steve Scherf et al.
# Submitted via: ExactAudioCopyFreeDBPlugin 1.0
#
DISCID=d00b6712
DTITLE=B.B. King - The Blues
DYEAR=2005
DGENRE=Blues
TTITLE0=Why Do Everything Happen To Me
TTITLE1=Ruby Lee
TTITLE2=When My Heart Beats Like A Hammer
TTITLE3=Don't Have To Cry aka Past Day
TTITLE4=Boogie Woogie Woman
TTITLE5=Early In The Morning
TTITLE6=I Want To Get Married
TTITLE7=That Ain't The Way To Do It
TTITLE8=Troubles, Troubles, Troubles
TTITLE9=Don't You Want A Man Like Me
TTITLE10=You Know I Go For You
TTITLE11=What Can I Do
TTITLE12=Sweet Little Angel (alt take)
TTITLE13=Don't Keep Me Waiting
TTITLE14=Tickle Britches
TTITLE15=Don't Break Your Promise
TTITLE16=I'm In Love
TTITLE17=Bye! Bye! Baby
EXTD=
EXTT0=
EXTT1=
EXTT2=
EXTT3=
EXTT4=
EXTT5=
EXTT6=
EXTT7=
EXTT8=
EXTT9=
EXTT10=
EXTT11=
EXTT12=(Alt take of RPM 468) Ace LP CHD 271 (1989)
EXTT13=Previously unissued (2005)
EXTT14=Previously unissued (2005)
EXTT15=Previously unissued (2005)
EXTT16=RPM 430 (1955)
EXTT17=RPM 412 (1954)
PLAYORDER=
